<?xml version="1.0" encoding="utf-8"?>
<!-- Generator: Adobe Illustrator 19.0.0, SVG Export Plug-In . SVG Version: 6.00 Build 0)  -->
<svg version="1.1" xmlns="http://www.w3.org/2000/svg" xmlns:xlink="http://www.w3.org/1999/xlink" x="0px" y="0px"
	 viewBox="0 0 45.2 47.9" style="enable-background:new 0 0 45.2 47.9;" xml:space="preserve">
<style type="text/css">
	.st0{fill:#F8991D;}
	.st1{opacity:0.32;fill:#FFFFFF;}
	.st2{opacity:0.1;}
	.st3{fill:#FFFFFF;}
	.st4{fill:#CFCECE;}
	.st5{fill:none;}
</style>
<g id="FooterBG">
	<g id="XMLID_6_">
		<rect id="XMLID_1_" x="60.3" y="-8" class="st0" width="32" height="32"/>
		<rect id="XMLID_5_" x="60.3" y="-8" class="st1" width="3.3" height="3.3"/>
	</g>
</g>
<g id="Layer_3">
	<g id="XMLID_10_" class="st2">
		<path id="XMLID_21_" d="M-55,64.6c0-0.6,0-1,0-1c0,0,0.4,0.2,0.9,0.3l20.8,7.7c0.5,0.2,0.9,0.8,0.8,1.3l-3.3,27.5
			c-0.1,0.5-0.5,1.2-1,1.5l-17.4,9.5c-0.5,0.3-0.9,0.5-0.9,0.5c0,0,0-0.5,0-1V64.6z"/>
	</g>
	<polygon id="XMLID_11_" class="st2" points="22.4,45.5 41.5,35 22.4,45.5 	"/>
	<path id="XMLID_8_" class="st0" d="M21.7,47.7c0.5,0.3,1.3,0.3,1.8,0l17.4-9.5c0.5-0.3,0.9-0.9,1-1.5l3.3-27.5
		c0.1-0.5-0.3-1.1-0.8-1.3L23.6,0.1c-0.5-0.2-1.4-0.2-1.9,0L0.9,7.9C0.4,8.1,0,8.7,0,9.2l1.3,26.3c0,0.5,0.4,1.2,0.9,1.5L21.7,47.7z
		"/>
	<path id="XMLID_9_" class="st2" d="M44.3,7.9L23.6,0.1C23.3,0,22.9,0,22.6,0v47.9c0.3,0,0.7-0.1,0.9-0.2l17.4-9.5
		c0.5-0.3,0.9-0.9,1-1.5l3.3-27.5C45.2,8.7,44.9,8.1,44.3,7.9z"/>
	<g id="XMLID_12_">
		<path id="XMLID_4_" class="st3" d="M22.6,3.8L8.5,35.2h5.3l2.8-7h6h6l2.8,7h5.3L22.6,3.8z M22.6,23.6h-4.1l4.1-10.2l4.1,10.2H22.6
			z"/>
		<polygon id="XMLID_18_" class="st4" points="22.6,3.8 22.6,13.4 26.7,23.6 22.6,23.6 22.6,28.2 28.6,28.2 31.4,35.2 36.7,35.2 		
			"/>
	</g>
</g>
<g id="Layer_2">
	<rect id="XMLID_2_" x="92.3" y="-8" class="st5" width="55.3" height="55.3"/>
</g>
</svg>
